<svg width="24" height="24" viewBox="0 0 24 24" fill="none" xmlns="http://www.w3.org/2000/svg">
<g clip-path="url(#clip0_21_2)">
<path fill-rule="evenodd" clip-rule="evenodd" d="M24 12C24 15.6161 22.4006 18.8585 19.8706 21.0586C17.7637 22.8907 15.0114 24 12 24C8.98862 24 6.23633 22.8907 4.1294 21.0586C1.59942 18.8585 0 15.6161 0 12C0 5.37258 5.37258 0 12 0C18.6274 0 24 5.37258 24 12ZM12 20.4C14.108 20.4 16.0346 19.6235 17.5094 18.341C17.6792 18.1933 17.843 18.039 18.0004 17.8783C16.7033 15.7804 14.5 14.4 12 14.4C9.5001 14.4 7.29672 15.7804 5.99963 17.8783C6.15703 18.039 6.32082 18.1933 6.49061 18.341C7.96546 19.6235 9.89208 20.4 12 20.4ZM12 12C13.9883 12 15.6 10.3883 15.6 8.4C15.6 6.41178 13.9883 4.8 12 4.8C10.0117 4.8 8.4 6.41178 8.4 8.4C8.4 10.3883 10.0117 12 12 12Z" fill="#5781a7"/>
</g>
<defs>
<clipPath id="clip0_21_2">
<rect width="24" height="24" fill="#5781a7"/>
</clipPath>
</defs>
</svg>
