<?xml version="1.0" encoding="UTF-8" standalone="no"?>
<!-- Generator: Adobe Illustrator 16.0.0, SVG Export Plug-In . SVG Version: 6.00 Build 0)  -->

<svg
   xmlns:dc="http://purl.org/dc/elements/1.1/"
   xmlns:cc="http://creativecommons.org/ns#"
   xmlns:rdf="http://www.w3.org/1999/02/22-rdf-syntax-ns#"
   xmlns:svg="http://www.w3.org/2000/svg"
   xmlns="http://www.w3.org/2000/svg"
   xmlns:sodipodi="http://sodipodi.sourceforge.net/DTD/sodipodi-0.dtd"
   xmlns:inkscape="http://www.inkscape.org/namespaces/inkscape"
   version="1.1"
   id="Layer_1"
   x="0px"
   y="0px"
   viewBox="0 0 999.99997 226.538"
   enable-background="new 0 0 897.978 203.428"
   xml:space="preserve"
   inkscape:version="0.91 r13725"
   sodipodi:docname="Monstercat.svg"
   width="1000"
   height="226.53799"><metadata
   id="metadata6826"><rdf:RDF><cc:Work
       rdf:about=""><dc:format>image/svg+xml</dc:format><dc:type
         rdf:resource="http://purl.org/dc/dcmitype/StillImage" /><dc:title></dc:title></cc:Work></rdf:RDF></metadata><defs
   id="defs6824">
	
	

		
	
			
		</defs><sodipodi:namedview
   pagecolor="#ffffff"
   bordercolor="#ffffff"
   borderopacity="1"
   objecttolerance="10"
   gridtolerance="10"
   guidetolerance="10"
   inkscape:pageopacity="0"
   inkscape:pageshadow="2"
   inkscape:window-width="1366"
   inkscape:window-height="705"
   id="namedview6822"
   showgrid="false"
   inkscape:zoom="0.65034999"
   inkscape:cx="495.67727"
   inkscape:cy="119.45432"
   inkscape:window-x="-8"
   inkscape:window-y="-8"
   inkscape:window-maximized="1"
   inkscape:current-layer="Layer_1" />
<g
   display="none"
   id="g6762"
   style="display:none"
   transform="translate(0,23.110012)">
	<g
   display="inline"
   id="g6764"
   style="display:inline">
		<path
   d="m 252.804,102.32 0,38.519 -19.481,0 0,-39.035 c 0,-5.503 -0.838,-9.546 -2.517,-12.126 -1.676,-2.581 -4.386,-3.871 -8.128,-3.871 -3.739,0 -7.053,1.399 -9.934,4.193 -2.88,2.795 -4.321,6.901 -4.321,12.32 l 0,38.519 -19.351,0 0,-71.676 19.351,0 0,9.032 c 5.33,-6.021 11.436,-9.032 18.318,-9.032 4.389,0 8.364,1.291 11.935,3.871 3.568,2.581 6.257,5.721 8.063,9.419 2.665,-4.213 6.256,-7.483 10.772,-9.806 4.518,-2.322 9.051,-3.484 13.611,-3.484 8.172,0 14.75,2.432 19.741,7.29 4.987,4.861 7.481,11.892 7.481,21.094 l 0,43.292 -19.481,0 0,-39.035 c 0,-10.663 -3.913,-15.997 -11.74,-15.997 -3.869,0 -7.225,1.399 -10.063,4.193 -2.836,2.795 -4.256,6.901 -4.256,12.32 z"
   id="path6766"
   inkscape:connector-curvature="0"
   style="fill:#ffffff" />
		<path
   d="m 382.716,105.029 c 0,10.063 -3.482,18.535 -10.45,25.416 -6.965,6.882 -15.718,10.32 -26.254,10.32 -10.536,0 -19.286,-3.438 -26.254,-10.32 -6.965,-6.881 -10.45,-15.353 -10.45,-25.416 0,-10.062 3.485,-18.555 10.45,-25.479 6.968,-6.923 15.718,-10.387 26.254,-10.387 10.536,0 19.289,3.463 26.254,10.387 6.968,6.924 10.45,15.417 10.45,25.479 z m -53.927,0 c 0,5.677 1.614,10.301 4.84,13.869 3.226,3.569 7.352,5.354 12.383,5.354 5.031,0 9.161,-1.784 12.386,-5.354 3.226,-3.568 4.837,-8.192 4.837,-13.869 0,-5.676 -1.611,-10.32 -4.837,-13.932 -3.226,-3.612 -7.354,-5.418 -12.386,-5.418 -5.032,0 -9.158,1.806 -12.383,5.418 -3.225,3.612 -4.84,8.256 -4.84,13.932 z"
   id="path6768"
   inkscape:connector-curvature="0"
   style="fill:#ffffff" />
		<path
   d="m 413.808,101.03 0,39.808 -19.352,0 0,-71.614 19.352,0 0,8.842 c 5.849,-5.935 12.427,-8.902 19.74,-8.902 7.311,0 13.437,2.581 18.383,7.741 4.946,5.162 7.42,12.042 7.42,20.642 l 0,43.292 -19.351,0 0,-40.325 c 0,-10.664 -3.917,-15.997 -11.743,-15.997 -3.869,0 -7.245,1.399 -10.125,4.192 -2.884,2.796 -4.324,6.903 -4.324,12.321 z"
   id="path6770"
   inkscape:connector-curvature="0"
   style="fill:#ffffff" />
		<path
   d="m 526.564,118.124 c 0,6.838 -2.515,12.321 -7.547,16.449 -5.031,4.129 -11.418,6.192 -19.159,6.192 -5.158,0 -10.535,-0.926 -16.125,-2.772 -5.593,-1.85 -10.624,-4.581 -15.096,-8.193 l 8.515,-12.128 c 7.225,5.593 14.921,8.386 23.093,8.386 2.494,0 4.472,-0.492 5.935,-1.482 1.461,-0.987 2.193,-2.301 2.193,-3.936 0,-1.632 -1.013,-3.139 -3.031,-4.516 -2.021,-1.373 -4.946,-2.665 -8.773,-3.87 -3.828,-1.203 -6.753,-2.235 -8.771,-3.096 -2.021,-0.859 -4.323,-2.107 -6.902,-3.742 -5.248,-3.267 -7.871,-8.105 -7.871,-14.512 0,-6.407 2.582,-11.632 7.741,-15.675 5.161,-4.042 11.825,-6.065 19.997,-6.065 8.172,0 16.341,2.755 24.513,8.258 l -7.225,12.901 C 512.03,86.195 506.03,84.13 500.055,84.13 c -5.979,0 -8.966,1.635 -8.966,4.903 0,1.806 0.944,3.226 2.836,4.257 1.892,1.032 5.032,2.237 9.417,3.612 4.389,1.377 7.505,2.432 9.355,3.161 1.848,0.732 4.063,1.871 6.644,3.418 4.815,2.925 7.223,7.806 7.223,14.643 z"
   id="path6772"
   inkscape:connector-curvature="0"
   style="fill:#ffffff" />
		<path
   d="m 564.419,84.259 0,31.091 c 0,2.667 0.688,4.753 2.066,6.257 1.372,1.505 2.054,1.985 4.918,2.018 l 9.074,-0.031 0,17.245 c 0,0 -5.132,0 -11.797,0 -6.667,0 -12.238,-2.267 -16.84,-6.653 -4.604,-4.386 -6.902,-10.363 -6.902,-17.932 l 0,-31.995 -12.569,0 0,-15.035 12.569,0 0,-19.67 19.48,0 0,19.67 12.525,0 0,15.035 -12.524,0 z"
   id="path6774"
   inkscape:connector-curvature="0"
   style="fill:#ffffff" />
		<path
   d="m 650.001,129.417 c -7.826,7.398 -17.008,11.095 -27.543,11.095 -10.536,0 -20.756,-3.244 -27.636,-9.74 -6.882,-6.492 -10.32,-15.2 -10.32,-26.124 0,-10.922 3.503,-19.61 10.513,-26.06 7.009,-6.451 16.801,-9.677 26.349,-9.677 9.544,0 17.65,2.883 24.317,8.645 6.664,5.764 9.999,13.676 9.999,23.739 l 0,10.32 -50.575,0 c 0.603,3.786 2.582,6.882 5.935,9.288 3.355,2.408 7.14,3.612 11.354,3.612 6.794,0 12.387,-2.278 16.771,-6.838 l 10.836,11.74 z M 631.424,88.263 c -2.665,-2.235 -5.914,-3.354 -9.739,-3.354 -3.828,0 -7.334,1.162 -10.516,3.482 -3.181,2.323 -5.031,5.464 -5.548,9.419 l 30.447,0 c -0.43,-4.128 -1.979,-7.31 -4.644,-9.547 z"
   id="path6776"
   inkscape:connector-curvature="0"
   style="fill:#ffffff" />
		<path
   d="m 703.542,87.102 c -5.764,0 -10.063,2.044 -12.902,6.128 -2.836,4.086 -4.256,9.482 -4.256,16.191 l 0,31.417 -19.351,0 0,-71.614 19.351,0 0,10.009 c 2.494,-2.839 5.61,-5.246 9.353,-7.225 3.742,-1.978 7.549,-3.01 11.418,-3.098 l 0.13,18.191 -3.743,0 z"
   id="path6778"
   inkscape:connector-curvature="0"
   style="fill:#ffffff" />
		<path
   d="m 750.762,123.354 c 6.448,0 12.256,-3.226 17.415,-9.676 l 11.483,12.901 c -8.948,9.289 -18.623,13.933 -29.028,13.933 -10.409,0 -19.204,-3.289 -26.384,-9.868 -7.184,-6.58 -10.772,-15.18 -10.772,-25.803 0,-10.621 3.634,-19.265 10.902,-25.932 7.266,-6.664 15.889,-9.999 25.867,-9.999 4.987,0 10.04,1.033 15.157,3.098 5.117,2.065 9.612,5.117 13.484,9.159 l -10.063,13.16 c -2.237,-2.665 -4.968,-4.729 -8.193,-6.192 -3.226,-1.462 -6.431,-2.194 -9.611,-2.194 -5.076,0 -9.441,1.657 -13.095,4.967 -3.656,3.312 -5.483,7.915 -5.483,13.804 0,5.894 1.827,10.473 5.483,13.741 3.653,3.269 7.932,4.901 12.838,4.901 z"
   id="path6780"
   inkscape:connector-curvature="0"
   style="fill:#ffffff" />
		<path
   d="m 848.937,140.838 -18.191,0 0,-9.743 c -4.987,6.278 -11.158,9.417 -18.513,9.417 -7.355,0 -13.525,-2.128 -18.514,-6.385 -4.99,-4.259 -7.483,-9.936 -7.483,-17.029 0,-7.097 2.582,-12.406 7.74,-15.934 5.162,-3.525 12.213,-5.29 21.16,-5.29 l 14.449,0 0,-0.387 c 0,-7.396 -3.916,-11.095 -11.739,-11.095 -3.355,0 -6.903,0.667 -10.646,2 -3.742,1.335 -6.902,2.989 -9.482,4.967 l -8.644,-12.513 c 9.116,-6.623 19.522,-9.936 31.221,-9.936 8.429,0 15.308,2.109 20.644,6.323 5.33,4.214 7.998,10.881 7.998,19.996 l 0,45.609 z m -19.482,-27.804 0,-3.354 -12.126,0 c -7.741,0 -11.613,2.408 -11.613,7.225 0,2.495 0.924,4.407 2.774,5.739 1.851,1.336 4.494,2 7.936,2 3.438,0 6.469,-1.052 9.096,-3.161 2.621,-2.106 3.933,-4.922 3.933,-8.449 z"
   id="path6782"
   inkscape:connector-curvature="0"
   style="fill:#ffffff" />
		<path
   d="m 886.752,84.259 0,31.091 c 0,2.667 0.688,4.753 2.066,6.257 1.372,1.505 2.054,1.985 4.918,2.018 l 9.074,-0.031 0,17.245 c 0,0 -5.132,0 -11.797,0 -6.667,0 -12.238,-2.267 -16.84,-6.653 -4.604,-4.386 -6.902,-10.363 -6.902,-17.932 l 0,-31.995 -12.569,0 0,-15.035 12.569,0 0,-19.67 19.48,0 0,19.67 12.525,0 0,15.035 -12.524,0 z"
   id="path6784"
   inkscape:connector-curvature="0"
   style="fill:#ffffff" />
	</g>
	<g
   display="inline"
   id="g6786"
   style="display:inline">
		<g
   id="g6788">
			<path
   d="m 116.714,148.799 c 6.891,-19.812 3.928,-30.436 -2.981,-36.326 12.168,-2.939 22.73,-5.861 23.923,-7.39 5.77,-7.422 -0.037,-26.832 -10.942,-24.754 -3.828,0.729 -12.394,4.692 -21.879,9.526 2.754,-4.45 4.657,-9.453 5.531,-14.818 6.239,-2.042 11.103,-8.945 11.138,-16.314 0.006,-1.065 -0.094,-2.14 -0.317,-3.208 -1.322,-6.321 -5.2,-11.654 -9.844,-13.809 -1.213,-2.945 -3.031,-6.543 -5.675,-10.182 -2.16,-3.007 -4.946,-6.035 -8.418,-8.688 C 96.024,17.757 94.702,12.899 93.335,8.992 92.453,6.477 91.558,4.358 90.631,2.8 89.672,1.296 88.754,0.092 87.147,0 c -0.104,0 -0.231,0.009 -0.38,0.03 -2.425,0.496 -4.1,2.966 -5.919,6.194 -1.34,2.467 -2.644,5.486 -3.857,8.606 -1.812,-0.204 -3.686,-0.325 -5.664,-0.319 -4.6,0.003 -9.633,0.59 -15.153,1.9 -5.051,1.198 -9.484,2.727 -13.409,4.504 -1.284,-1.653 -2.583,-3.211 -3.846,-4.557 -2.514,-2.594 -4.751,-4.516 -7.171,-4.601 -0.186,0.003 -0.372,0.023 -0.558,0.05 -1.328,0.263 -2.01,1.349 -2.521,2.573 -1.406,3.491 -1.827,10.123 -1.892,17.737 -1.608,1.729 -3.013,3.512 -4.197,5.315 -5.734,8.727 -6.858,17.754 -6.858,23.619 -0.006,0.18 0,0.348 0.007,0.522 -1.702,3.028 -2.714,6.773 -2.729,10.668 -0.006,0.044 0,0.095 0.004,0.142 0.125,9.167 8.005,16.866 15.912,16.922 0.006,0 0.012,0 0.018,0.006 1.865,-0.006 3.717,-0.487 5.442,-1.473 3.96,7.316 10.12,13.257 17.566,17.007 -17.699,-0.734 -38.794,-1.222 -41.037,0.428 -7.682,5.651 -7.682,25.823 3.417,26.635 4.722,0.349 17.473,-2.102 30.574,-5.014 -2.783,4.002 -5.105,8.443 -6.661,13.186 -18.812,-2.349 -31.002,-1.582 -37.669,2.281 l 0.012,0.018 c -1.532,0.889 -2.574,2.526 -2.581,4.43 0,2.849 2.306,5.153 5.148,5.153 0.944,-0.003 1.809,-0.274 2.567,-0.711 l 0.009,0.012 c 3.425,-1.978 11.607,-3.389 30.557,-1.06 -0.614,10.314 2.975,21.461 13.666,32.28 -23.565,-11.587 -38.432,-3.884 -27.827,19.581 12.121,3.468 48.736,-0.487 52.362,-2.963 2.125,-1.464 -7.646,-24.666 -9.812,-44.227 1.558,0.188 3.048,0.304 4.453,0.298 6.201,0.006 10.908,-1.892 14.045,-5.657 5.253,-6.304 3.906,-15.612 2.485,-20.963 24.306,4.772 12.219,38.749 15.748,40.535 9.293,4.684 32.431,0.927 44.005,-3.904 6.675,-25.163 -7.275,-31.352 -28.689,-16.384 z M 27.449,54.866 c -0.599,-0.124 -1.21,-0.198 -1.806,-0.192 -1.287,0.018 -2.523,0.316 -3.68,0.829 0.586,-4.196 1.98,-9.083 4.908,-13.874 0.126,4.62 0.344,9.194 0.578,13.237 z M 57.519,22.09 c 5.125,-1.216 9.707,-1.744 13.809,-1.744 1.251,0.006 2.451,0.074 3.612,0.166 -0.906,2.659 -1.712,5.206 -2.361,7.366 C 71.788,27.836 71,27.763 70.209,27.766 63.197,27.76 56.61,29.537 50.855,32.65 c -1.309,-2.072 -2.83,-4.421 -4.474,-6.782 -0.028,-0.042 -0.059,-0.086 -0.086,-0.13 3.276,-1.405 6.989,-2.633 11.224,-3.648 z m 17.733,120.848 c -1.601,1.898 -5.441,2.408 -10.871,1.494 0.622,-7.779 3.524,-13.859 10.48,-15.916 1.324,3.5 3.035,11.25 0.391,14.422 z M 98.071,89.268 C 96.106,89.08 94.217,88.988 92.389,88.95 l -4.734,-11.1 -2.079,11.235 c -7.85,0.522 -14.101,2.222 -18.824,4.093 l -6.819,-8.364 1.142,11.038 C 57.509,97.835 55.73,99.476 55.73,99.476 49.76,93.47 44.97,83.112 42.789,78.587 c 2.73,-1.9 5.61,-3.571 8.575,-5.046 l 7.388,8.192 -1.688,-10.754 c 8.601,-3.467 17.53,-5.468 25.369,-6.61 l 4.968,9.075 0.825,-9.786 c 5.523,-0.573 10.197,-0.726 13.328,-0.741 0.073,13.15 -2.071,22.113 -3.483,26.351 z m 1.508,-56.067 c 0.475,0.584 0.938,1.166 1.372,1.753 1.507,2.075 2.698,4.141 3.646,6.065 -1.031,0.304 -2.041,0.806 -2.993,1.526 -0.061,-0.083 -0.146,-0.147 -0.211,-0.233 -0.521,-2.774 -1.141,-5.876 -1.814,-9.111 z"
   id="path6790"
   inkscape:connector-curvature="0" />
		</g>
	</g>
</g>
<g
   id="g6794"
   transform="matrix(1.1136105,0,0,1.1136105,0.00334083,-6.815918e-5)">
		<path
   inkscape:connector-curvature="0"
   id="path6796"
   d="m 254.804,104.837 0,38.52 -19.481,0 0,-39.035 c 0,-5.503 -0.838,-9.546 -2.517,-12.126 -1.676,-2.581 -4.386,-3.871 -8.128,-3.871 -3.739,0 -7.053,1.399 -9.934,4.193 -2.88,2.795 -4.321,6.901 -4.321,12.319 l 0,38.52 -19.351,0 0,-68.727 19.351,0 0,6.083 c 5.33,-6.021 11.436,-9.032 18.318,-9.032 4.389,0 8.364,1.291 11.935,3.871 3.568,2.581 6.257,5.721 8.063,9.419 2.665,-4.213 6.256,-7.483 10.772,-9.806 4.518,-2.322 9.051,-3.484 13.611,-3.484 8.172,0 14.75,2.433 19.741,7.29 4.987,4.86 7.481,11.892 7.481,21.093 l 0,43.293 -19.481,0 0,-39.035 c 0,-10.663 -3.913,-15.997 -11.74,-15.997 -3.869,0 -7.225,1.399 -10.063,4.193 -2.836,2.795 -4.256,6.901 -4.256,12.319 z" />
		<path
   inkscape:connector-curvature="0"
   id="path6798"
   d="m 383.716,107.547 c 0,10.063 -3.482,18.535 -10.45,25.416 -6.965,6.882 -15.718,10.32 -26.254,10.32 -10.536,0 -19.286,-3.438 -26.254,-10.32 -6.965,-6.881 -10.45,-15.353 -10.45,-25.416 0,-10.062 3.485,-18.556 10.45,-25.479 6.968,-6.923 15.718,-10.387 26.254,-10.387 10.536,0 19.289,3.464 26.254,10.387 6.968,6.924 10.45,15.418 10.45,25.479 z m -53.927,0 c 0,5.677 1.614,10.301 4.84,13.869 3.226,3.569 7.352,5.354 12.383,5.354 5.031,0 9.161,-1.784 12.386,-5.354 3.226,-3.568 4.837,-8.192 4.837,-13.869 0,-5.677 -1.611,-10.32 -4.837,-13.933 -3.226,-3.613 -7.354,-5.418 -12.386,-5.418 -5.032,0 -9.158,1.806 -12.383,5.418 -3.225,3.612 -4.84,8.257 -4.84,13.933 z" />
		<path
   inkscape:connector-curvature="0"
   id="path6800"
   d="m 412.808,103.548 0,39.809 -19.352,0 0,-68.791 19.352,0 0,6.018 c 5.849,-5.935 12.427,-8.902 19.74,-8.902 7.311,0 13.437,2.581 18.383,7.741 4.946,5.162 7.42,12.043 7.42,20.642 l 0,43.293 -19.351,0 0,-40.325 c 0,-10.664 -3.917,-15.997 -11.743,-15.997 -3.869,0 -7.245,1.399 -10.125,4.192 -2.884,2.796 -4.324,6.902 -4.324,12.32 z" />
		<path
   inkscape:connector-curvature="0"
   id="path6802"
   d="m 525.564,120.642 c 0,6.838 -2.515,12.321 -7.547,16.449 -5.031,4.129 -11.418,6.192 -19.159,6.192 -5.158,0 -10.535,-0.926 -16.125,-2.772 -5.593,-1.85 -10.624,-4.581 -15.096,-8.193 l 8.515,-12.128 c 7.225,5.593 14.921,8.386 23.093,8.386 2.494,0 4.472,-0.492 5.935,-1.482 1.461,-0.987 2.193,-2.301 2.193,-3.936 0,-1.632 -1.013,-3.139 -3.031,-4.516 -2.021,-1.373 -4.946,-2.665 -8.773,-3.87 -3.828,-1.203 -6.753,-2.235 -8.771,-3.096 -2.021,-0.859 -4.323,-2.107 -6.902,-3.742 -5.248,-3.267 -7.871,-8.105 -7.871,-14.513 0,-6.408 2.582,-11.632 7.741,-15.675 5.161,-4.042 11.825,-6.065 19.997,-6.065 8.172,0 16.341,2.755 24.513,8.258 L 517.05,92.84 c -6.021,-4.129 -12.021,-6.193 -17.996,-6.193 -5.979,0 -8.966,1.635 -8.966,4.903 0,1.807 0.944,3.226 2.836,4.257 1.892,1.032 5.032,2.237 9.417,3.612 4.389,1.377 7.505,2.432 9.355,3.161 1.848,0.731 4.063,1.871 6.644,3.419 4.816,2.925 7.224,7.806 7.224,14.643 z" />
		<path
   inkscape:connector-curvature="0"
   id="path6804"
   d="m 561.419,86.777 0,31.092 c 0,2.667 0.688,4.753 2.066,6.257 1.372,1.505 2.054,1.985 4.918,2.018 l 9.074,-0.031 0,17.245 c 0,0 -5.132,0 -11.797,0 -6.667,0 -12.238,-2.267 -16.84,-6.653 -4.604,-4.386 -6.902,-10.363 -6.902,-17.932 l 0,-31.996 -10.533,0 0,-15.035 10.533,0 0,-19.67 19.48,0 0,19.67 15.986,0 0,15.035 -15.985,0 z" />
		<path
   inkscape:connector-curvature="0"
   id="path6806"
   d="m 881.919,86.777 0,31.092 c 0,2.667 0.688,4.753 2.066,6.257 1.372,1.505 2.054,1.985 4.918,2.018 l 9.074,-0.031 0,17.245 c 0,0 -5.132,0 -11.797,0 -6.667,0 -12.238,-2.267 -16.84,-6.653 -4.604,-4.386 -6.902,-10.363 -6.902,-17.932 l 0,-31.996 -10.533,0 0,-15.035 10.533,0 0,-19.67 19.48,0 0,19.67 15.986,0 0,15.035 -15.985,0 z" />
		<path
   inkscape:connector-curvature="0"
   id="path6808"
   d="m 647.001,131.936 c -7.826,7.398 -17.008,11.095 -27.543,11.095 -10.536,0 -20.756,-3.244 -27.636,-9.74 -6.882,-6.492 -10.32,-15.2 -10.32,-26.124 0,-10.922 3.503,-19.61 10.513,-26.061 7.009,-6.451 16.801,-9.677 26.349,-9.677 9.544,0 17.65,2.883 24.317,8.645 6.664,5.764 9.999,13.676 9.999,23.738 l 0,10.321 -50.575,0 c 0.603,3.786 2.582,6.882 5.935,9.288 3.355,2.408 7.14,3.612 11.354,3.612 6.794,0 12.387,-2.278 16.771,-6.838 l 10.836,11.741 z M 628.424,90.782 c -2.665,-2.235 -5.914,-3.354 -9.739,-3.354 -3.828,0 -7.334,1.162 -10.516,3.482 -3.181,2.323 -5.031,5.465 -5.548,9.419 l 30.447,0 c -0.43,-4.129 -1.979,-7.31 -4.644,-9.547 z" />
		<path
   inkscape:connector-curvature="0"
   id="path6810"
   d="m 700.542,89.621 c -5.764,0 -10.063,2.044 -12.902,6.128 -2.836,4.086 -4.256,9.481 -4.256,16.191 l 0,31.417 -19.351,0 0,-71.615 19.351,0 0,10.01 c 2.494,-2.84 5.61,-5.246 9.353,-7.225 3.742,-1.978 7.549,-3.011 11.418,-3.098 l 0.13,18.191 -3.743,0 z" />
		<path
   inkscape:connector-curvature="0"
   id="path6812"
   d="m 746.762,125.873 c 6.448,0 12.256,-3.226 17.415,-9.676 l 11.483,12.901 c -8.948,9.289 -18.623,13.933 -29.028,13.933 -10.409,0 -19.204,-3.289 -26.384,-9.868 -7.184,-6.58 -10.772,-15.18 -10.772,-25.803 0,-10.621 3.634,-19.266 10.902,-25.932 7.266,-6.664 15.889,-9.999 25.867,-9.999 4.987,0 10.04,1.033 15.157,3.098 5.117,2.065 9.612,5.117 13.484,9.158 l -10.063,13.16 c -2.237,-2.665 -4.968,-4.729 -8.193,-6.192 -3.226,-1.462 -6.431,-2.193 -9.611,-2.193 -5.076,0 -9.441,1.656 -13.095,4.967 -3.656,3.312 -5.483,7.915 -5.483,13.804 0,5.894 1.827,10.473 5.483,13.741 3.653,3.269 7.932,4.901 12.838,4.901 z" />
		<path
   inkscape:connector-curvature="0"
   id="path6814"
   d="m 844.937,143.357 -18.191,0 0,-9.743 c -4.987,6.278 -11.158,9.417 -18.513,9.417 -7.355,0 -13.525,-2.128 -18.514,-6.385 -4.99,-4.259 -7.483,-9.936 -7.483,-17.029 0,-7.097 2.582,-12.406 7.74,-15.934 5.162,-3.525 12.213,-5.291 21.16,-5.291 l 14.449,0 0,-0.387 c 0,-7.395 -3.916,-11.094 -11.739,-11.094 -3.355,0 -6.903,0.667 -10.646,1.999 -3.742,1.335 -6.902,2.989 -9.482,4.967 l -8.644,-12.513 c 9.116,-6.623 19.522,-9.936 31.221,-9.936 8.429,0 15.308,2.108 20.644,6.323 5.33,4.214 7.998,10.881 7.998,19.995 l 0,45.611 z m -19.482,-27.805 0,-3.354 -12.126,0 c -7.741,0 -11.613,2.408 -11.613,7.225 0,2.495 0.924,4.407 2.774,5.739 1.851,1.336 4.494,2 7.936,2 3.438,0 6.469,-1.052 9.096,-3.161 2.621,-2.105 3.933,-4.921 3.933,-8.449 z" />
	</g><path
   inkscape:connector-curvature="0"
   id="path6820"
   d="m 132.2045,165.70407 c 7.67389,-22.06285 4.37427,-33.89385 -3.31967,-40.45302 13.55041,-3.2729 25.31237,-6.52687 26.64091,-8.22958 6.42553,-8.26521 -0.0412,-29.880399 -12.18513,-27.566316 -4.2629,0.811822 -13.80209,5.225061 -24.36469,10.608256 3.06689,-4.955569 5.18609,-10.526963 6.15938,-16.501483 6.94782,-2.273993 12.36442,-9.961246 12.4034,-18.167443 0.007,-1.185995 -0.10468,-2.383126 -0.35302,-3.572462 -1.47219,-7.039133 -5.79077,-12.978018 -10.96238,-15.377848 -1.35081,-3.279583 -3.37535,-7.286354 -6.31974,-11.338783 -2.4054,-3.348627 -5.50792,-6.720639 -9.37437,-9.675048 -1.36529,-5.656028 -2.83748,-11.065948 -4.35979,-15.416825 -0.9822,-2.8007302 -1.97888,-5.1604712 -3.0112,-6.8954762 -1.06795,-1.67487 -2.09025,-3.01565695 -3.87982,-3.11810995918 -0.115815,0 -0.257244,0.01002000918 -0.423172,0.03341000918 -2.700505,0.552351 -4.565803,3.30296895 -6.59146,6.89770295 -1.492239,2.747278 -2.944387,6.1092682 -4.295196,9.5837332 -2.017863,-0.227177 -4.104769,-0.361924 -6.307491,-0.355242 -5.122608,0.0033 -10.72741,0.65703 -16.87454,2.11586 -5.624847,1.334106 -10.561483,3.036816 -14.932404,5.015702 -1.429876,-1.840798 -2.876456,-3.575803 -4.282946,-5.074723 -2.799617,-2.888706 -5.290764,-5.029065 -7.985701,-5.123723 -0.207132,0.0033 -0.414264,0.02561 -0.621395,0.05568 -1.478875,0.29288 -2.238357,1.502261 -2.807412,2.86532 -1.565737,3.887615 -2.034567,11.27308 -2.106951,19.75211 -1.790686,1.925433 -3.355309,3.911 -4.673824,5.91884 -6.385443,9.718479 -7.637141,19.771042 -7.637141,26.302368 -0.0067,0.20045 0,0.387536 0.0078,0.581304 -1.895365,3.372013 -3.022339,7.542485 -3.039043,11.879998 -0.0067,0.049 0,0.105793 0.0045,0.158132 0.139202,10.208468 8.914453,18.782156 17.719772,18.844518 0.0067,0 0.01336,0 0.02005,0.0067 2.076883,-0.0067 4.13929,-0.542329 6.060268,-1.640349 4.409898,8.146067 11.269739,14.763137 19.561683,18.939177 -19.709793,-0.81739 -43.201408,-1.36083 -45.699236,0.47662 -8.5547563,6.29302 -8.5547563,28.75677 3.805207,29.66103 5.258469,0.38865 19.458117,-2.34081 34.047529,-5.58365 -3.099178,4.45667 -5.684982,9.40222 -7.41776,14.68407 -20.949241,-2.61587 -34.524154,-1.76173 -41.9485955,2.54015 l 0.013363,0.02 c -1.7060513,0.99 -2.86643353,2.81298 -2.8742288,4.9333 0,3.17267 2.5679859,5.73843 5.7328671,5.73843 1.0512484,-0.003 2.0145215,-0.30513 2.8586383,-0.79178 l 0.010022,0.0134 c 3.8141159,-2.20272 12.9256779,-3.77403 34.0285969,-1.18043 -0.683756,11.48578 3.312992,23.8992 15.218602,35.94735 -26.242232,-12.90341 -42.79828,-4.32526 -30.988441,21.80561 13.498074,3.862 54.272924,-0.54233 58.310876,-3.29963 2.366422,-1.63033 -8.514666,-27.46832 -10.926747,-49.25165 1.735005,0.20935 3.394285,0.33853 4.958908,0.33185 6.905499,0.007 12.147264,-2.10695 15.64066,-6.29969 5.849802,-7.0202 4.349763,-17.38569 2.767322,-23.34462 27.06742,5.31415 13.60721,43.15129 17.53714,45.1402 10.34879,5.21615 36.11551,1.03232 49.00444,-4.34753 7.43335,-28.02179 -8.10152,-34.91392 -31.94838,-18.2454 z M 32.798058,61.099288 c -0.667053,-0.138087 -1.347469,-0.220494 -2.011181,-0.213813 -1.433217,0.02004 -2.809639,0.351901 -4.098087,0.923183 0.652576,-4.672709 2.204949,-10.114924 5.465601,-15.450232 0.140315,5.14488 0.383082,10.238535 0.643667,14.740862 z M 66.284327,24.599589 c 5.707254,-1.35415 10.809818,-1.942136 15.377848,-1.942136 1.393127,0.0067 2.72946,0.08241 4.022361,0.184859 -1.008931,2.96109 -1.906501,5.797456 -2.629234,8.202855 -0.880866,-0.04677 -1.758391,-0.128065 -2.639257,-0.124724 -7.808637,-0.0067 -15.14399,1.972204 -21.552819,5.438874 -1.457716,-2.307401 -3.151517,-4.923272 -4.982293,-7.552507 -0.03118,-0.04677 -0.0657,-0.09577 -0.09577,-0.144769 3.648188,-1.564623 7.783024,-2.932137 12.499165,-4.062452 z M 86.031983,159.1772 c -1.782891,2.11363 -6.059155,2.68157 -12.10606,1.66373 0.692665,-8.66277 3.924363,-15.43352 11.670638,-17.72422 1.474421,3.89764 3.379808,12.52812 0.435422,16.06049 z M 111.44346,99.409719 c -2.18824,-0.209359 -4.29185,-0.311811 -6.32753,-0.354129 L 99.844095,86.694513 97.528898,99.205928 c -8.741843,0.581305 -15.703022,2.474442 -20.962605,4.558012 l -7.59371,-9.314243 1.271743,12.292033 c -3.971135,2.20718 -5.952248,4.03573 -5.952248,4.03573 -6.648255,-6.68835 -11.98245,-18.223128 -14.411234,-23.262216 3.040156,-2.11586 6.247355,-3.976703 9.54921,-5.619279 l 8.227355,9.122698 -1.879775,-11.975768 C 75.355799,75.182007 85.299227,72.953673 94.02882,71.68193 l 5.532417,10.106015 0.918733,-10.897793 c 6.15047,-0.638098 11.35548,-0.808481 14.8422,-0.825185 0.0813,14.643979 -2.30629,24.62527 -3.87871,29.344752 z m 1.67933,-62.436803 c 0.52896,0.650349 1.04456,1.29847 1.52787,1.952159 1.67821,2.310742 3.00452,4.611462 4.06022,6.754048 -1.14813,0.338538 -2.27287,0.89757 -3.33303,1.69937 -0.0679,-0.09243 -0.16259,-0.163701 -0.23497,-0.259471 -0.58019,-3.089156 -1.27063,-6.543576 -2.02009,-10.146106 z" />
</svg>